<svg xmlns="http://www.w3.org/2000/svg" width="64.102" height="62.068" viewBox="0 0 64.102 62.068">
    <g id="gravelRoadIcon" transform="translate(0 0)">
        <g id="Groupe_7" data-name="Groupe 7" transform="translate(0 0)">
            <g id="Groupe_6" data-name="Groupe 6">
                <g id="Groupe_3" data-name="Groupe 3" transform="translate(0 3.907)">
                    <path id="Tracé_1" data-name="Tracé 1" d="M107.389,179.141a9.3,9.3,0,0,1,2.977,1.193c-1.649,2.384-2.462,7.19-2.733,12.594s3.657,10.807,3.145,10.838c-.409.025-1.476-.875-1.958-1.329l-2.24,3.347c.912,1.574,3.323,4.839,5.675,5.306,2.94.584,33.331,10.18,36.166,11.534a57.682,57.682,0,0,1,7.645,5.032c1.3-2.067,3.974-6.969,4.274-10.044s-3.541-7.883-5.5-9.9a11.371,11.371,0,0,0-1.221,2.52c-.382,1.246-2.821,3.841-19.487-1.249-10.844-3.369-15.672-12.13-16.73-16.09-1.86-2.076-5.614-6.808-5.757-9.122-.178-2.893,4.5-3.792,8.616-4.044s27.018-3.035,22.434-5.5c-3.667-1.976-11.517-2.553-14.984-2.595l-.131-2.132a48.071,48.071,0,0,0-10.127,1.845C112.658,172.856,106.628,179.187,107.389,179.141Z" transform="translate(-106.58 -169.495)" fill="#141301"/>
                </g>
                <g id="Groupe_4" data-name="Groupe 4" transform="translate(8.136)">
                    <path id="Tracé_2" data-name="Tracé 2" d="M214.736,142.406c-1,.062-6.106-3.047-4.415-4.421s21.5-3.712,25.5-4.634c1.566-.361,5.039-1.652,6.275-3.861,1.065-1.434-2.141-2.743-3.747-3.284-4.227-1.423-12.269-1.747-13.2-1.69s-.894-1.06.919-2.3,6.478-2.224,8.736-2.363,7.345,2.269,12.958,4.31c5.451,1.982,15.4,5.66,18.183,9.309v2.521c-.289-.157-4.45-.334-9.192-.445-5.928-.14-14.978,2.179-19.244,2.441l-13.048.8C219.193,139.11,215.99,142.329,214.736,142.406Z" transform="translate(-209.98 -119.844)" fill="#141301"/>
                </g>
                <g id="Groupe_5" data-name="Groupe 5" transform="translate(15.597 20.965)">
                    <path id="Tracé_3" data-name="Tracé 3" d="M310.479,389.6c-1.963.527-5.844,1.933-5.669,3.341.219,1.76,2.365,7.835,6.449,9.357l.943.353c4.916,1.846,16.938,6.358,19.36,5.382a17.419,17.419,0,0,0,5.387-4.321c.735-9.077-2.21-15.4-3.775-17.428-.537.141-2.221.613-4.655,1.375S315.478,389.266,310.479,389.6Zm13.942,11.121a1.317,1.317,0,0,0,1.83-.35l4.554-6.711a1.317,1.317,0,1,0-2.18-1.479l-4.554,6.711A1.317,1.317,0,0,0,324.422,400.716Zm-7.1-.206a1.318,1.318,0,0,0,1.822-.388l2.624-4.046a1.317,1.317,0,1,0-2.21-1.433l-2.624,4.046A1.317,1.317,0,0,0,317.319,400.51Z" transform="translate(-304.804 -386.28)" fill="#b7b5b3"/>
                </g>
            </g>
        </g>
    </g>
</svg>