<svg xmlns="http://www.w3.org/2000/svg" width="62.62" height="62.343" viewBox="0 0 62.62 62.343">
    <g id="roadIcon" transform="translate(0 0)">
        <g id="Groupe_14" data-name="Groupe 14" transform="translate(0 0)">
            <g id="Groupe_13" data-name="Groupe 13" transform="translate(0)">
                <g id="Groupe_9" data-name="Groupe 9" transform="translate(0 11.02)">
                    <path id="Tracé_5" data-name="Tracé 5" d="M82.082,232.823l-3.65-3.3c2.637-1.978,10.44-2,14.012-1.766C87.828,227.667,83.613,231.1,82.082,232.823Zm21.264,42.3c-2.985-.814-6.415-1.493-9.958-2.194h0c-4.363-.863-8.9-1.761-12.979-2.985-10.359-9.619-6.659-25.9-3.7-29.6l.24-.3c1.639-2.08,6.848-8.692,14.558-10.795,8.139-2.22,15.538-.74,22.937,3.7,5.919,3.552,7.892,10.6,8.139,14.058h-22.2a6.632,6.632,0,0,0-6.659,6.659c0,3.7,1.48,5.179,4.439,6.659l2.22,2.96,17.018,5.179a13.778,13.778,0,0,1-2.96,6.659C113.982,275.584,111.485,277.341,103.346,275.122Zm21.445-5.734c-.8.741-3.4-.047-4.6-.534-.654,4.541-2.277,7.076-3.007,7.483a6.344,6.344,0,0,1-2.657.718c-.214.021-.416.042-.606.071l8.666,1.856c.286-.249.636-.51,1.011-.791h0c1.4-1.051,3.163-2.371,3.331-4.266C127.192,270.922,125.792,268.463,124.791,269.388Zm-22.762-34.275a1.1,1.1,0,0,0-.066-2.2c-.261.008-.536.014-.821.021a42.025,42.025,0,0,0-5.932.448,15.641,15.641,0,0,0-7.393,3.078,26.053,26.053,0,0,0-5.1,6.094c-.638,1-1.154,1.908-1.511,2.562-.179.328-.318.593-.413.778-.048.092-.084.165-.109.215l-.029.058-.008.016,0,0v0a1.1,1.1,0,0,0,1.978.968v0l.006-.011.024-.048.1-.195c.088-.171.219-.421.388-.731.339-.621.83-1.482,1.436-2.435a23.946,23.946,0,0,1,4.622-5.563,13.461,13.461,0,0,1,6.371-2.619,39.681,39.681,0,0,1,5.6-.417h0l.135,0Z" transform="translate(-73.564 -227.659)" fill="#141301"/>
                </g>
                <g id="Groupe_10" data-name="Groupe 10" transform="translate(22.382 32.586)">
                    <path id="Tracé_6" data-name="Tracé 6" d="M418.316,555.557a4.439,4.439,0,0,0,0,8.879h.042a1.481,1.481,0,0,0,.114.313l1.034,2.068a1.48,1.48,0,0,0,.911.759l20.167,5.855a1.48,1.48,0,0,0,1.882-1.6l-1.8-14.973a1.48,1.48,0,0,0-1.469-1.3Zm5.071,5.948a1.1,1.1,0,1,0,1.719,1.375l3.028-3.786a1.1,1.1,0,0,0-1.719-1.375Zm4.5,3.485a1.1,1.1,0,1,0,1.709,1.389l5.768-7.1a1.1,1.1,0,1,0-1.709-1.388Z" transform="translate(-413.876 -555.557)" fill="#b7b5b3"/>
                </g>
                <g id="Groupe_11" data-name="Groupe 11" transform="translate(52.806 17.758)">
                    <path id="Tracé_7" data-name="Tracé 7" d="M885.968,340.944a.3.3,0,0,0,.242-.466l-2.585-3.693a.3.3,0,0,1,.243-.466h1.092a.3.3,0,0,0,.249-.455l-3.6-5.629a.3.3,0,0,0-.5,0l-3.6,5.629a.3.3,0,0,0,.249.455h1.092a.3.3,0,0,1,.242.466l-2.585,3.693a.3.3,0,0,0,.243.466h3.279a.3.3,0,0,1,.3.3v3.108a.3.3,0,0,0,.3.3h1.48a.3.3,0,0,0,.3-.3V341.24a.3.3,0,0,1,.3-.3Z" transform="translate(-876.449 -330.098)" fill="#b7b5b3"/>
                </g>
                <g id="Groupe_12" data-name="Groupe 12" transform="translate(45.406)">
                    <path id="Tracé_8" data-name="Tracé 8" d="M775.539,73.163a.3.3,0,0,0,.242-.466l-3.232-4.618a.3.3,0,0,1,.242-.466h1.532a.3.3,0,0,0,.249-.455l-4.431-6.924a.3.3,0,0,0-.5,0l-4.431,6.924a.3.3,0,0,0,.249.455h1.532a.3.3,0,0,1,.242.466L764,72.7a.3.3,0,0,0,.243.466h4.108a.3.3,0,0,1,.3.3v3.848a.3.3,0,0,0,.3.3h1.894a.3.3,0,0,0,.3-.3V73.459a.3.3,0,0,1,.3-.3Z" transform="translate(-763.949 -60.098)" fill="#b7b5b3"/>
                </g>
            </g>
        </g>
    </g>
</svg>