<svg xmlns="http://www.w3.org/2000/svg" width="63.766" height="57.602" viewBox="0 0 63.766 57.602">
    <g id="trackIcon" transform="translate(0 -11.194)">
        <g id="Groupe_32" data-name="Groupe 32" transform="translate(0 11.194)">
            <g id="Groupe_31" data-name="Groupe 31" transform="translate(0 0)">
                <g id="Groupe_15" data-name="Groupe 15">
                    <path id="Tracé_9" data-name="Tracé 9" d="M72.728,243.524l2.96,1.269-1.638,7.369-1.385.277a.919.919,0,0,0-.021-.177,22.57,22.57,0,0,1-.491-4.676A12.449,12.449,0,0,1,72.728,243.524Zm-1.682-.721-1.09-.467-2.456-.819c1.638-1.911,5.24-6.059,6.55-7.369.256-.255.611-.67,1.062-1.2,2.443-2.855,7.712-9.01,15.314-11.083,9.007-2.456,17.195-.819,25.383,4.094,6.55,3.93,8.734,12.555,9.007,16.376h-26.2c-4.094.818-4.913,4.094-4.913,6.55s.819,5.732,4.913,6.55l1.638,4.094,30.3,7.369c-1.365,2.456-4.585,7.861-6.55,9.826-2.456,2.456-4.094,2.456-12.282-2.456-6.55-3.93-25.11-6.55-33.571-7.369l-2.456-7.369-5.732-6.55.945-.189a.923.923,0,0,1-.043-.142,24.4,24.4,0,0,1-.532-5.068A14.02,14.02,0,0,1,71.046,242.8Zm32.206-15.7a1.218,1.218,0,0,1-1.181,1.254l-.95.025a43.908,43.908,0,0,0-6.2.462,14.9,14.9,0,0,0-7.05,2.9,26.5,26.5,0,0,0-5.115,6.156c-.671,1.055-1.214,2.007-1.59,2.695-.187.344-.332.62-.43.809-.049.094-.085.167-.11.215l-.027.054-.006.012v0m0,0a1.218,1.218,0,1,1-2.189-1.072l.992.486-.992-.486v0l0-.005.009-.018.032-.064c.028-.056.068-.136.121-.238.105-.2.26-.5.457-.861.4-.724.966-1.725,1.673-2.835a28.834,28.834,0,0,1,5.64-6.744,17.309,17.309,0,0,1,8.181-3.406,46.517,46.517,0,0,1,6.565-.5c.316-.008.62-.015.909-.024a1.218,1.218,0,0,1,1.254,1.182" transform="translate(-67.5 -220.737)" fill="#141301"/>
                </g>
                <g id="Groupe_16" data-name="Groupe 16" transform="translate(27.839 23.237)">
                    <path id="Tracé_10" data-name="Tracé 10" d="M454.913,540a4.913,4.913,0,1,0,0,9.826h.046a1.638,1.638,0,0,0,.127.346l1.136,2.273a1.638,1.638,0,0,0,1.038.849l26.6,7.189a1.638,1.638,0,0,0,1.975-2.117L479.858,541.1a1.637,1.637,0,0,0-1.547-1.1Zm5.612,6.582a1.218,1.218,0,1,0,1.9,1.522l3.351-4.189a1.218,1.218,0,0,0-1.9-1.522Zm4.982,3.857a1.218,1.218,0,1,0,1.891,1.537l6.383-7.856a1.218,1.218,0,0,0-1.891-1.537Z" transform="translate(-450 -540)" fill="#b7b5b3"/>
                </g>
            </g>
        </g>
    </g>
</svg>