<svg xmlns="http://www.w3.org/2000/svg" width="63.537" height="52.771" viewBox="0 0 63.537 52.771">
    <g id="offRoadIcon" transform="translate(0 0)">
        <g id="Groupe_8" data-name="Groupe 8" transform="translate(0 0)">
            <path id="Tracé_4" data-name="Tracé 4" d="M88.957,174.184c-2.435-3.143-6.367-10.738-4.716-18.991,2.153-10.763,9.328-20.091,23.679-20.809,11.731-.587,22.5,5.06,27.221,7.533a21.538,21.538,0,0,0,2.2,1.077c1.415.472,6.482,1.945,8.906,2.588a1.525,1.525,0,0,1,1.139,1.459v1.138a1.5,1.5,0,0,1-1.906,1.423c-2.747-.742-7.535-1.735-11.01-.867-4.3,1.074-15.2,4.324-21.1,6.11a1.432,1.432,0,0,0-1.007,1.54l1.182,10.05a1.436,1.436,0,0,0,1.041,1.215l11.455,3.182a1.435,1.435,0,0,0,1.026-.1l3.134-1.567a1.435,1.435,0,0,1,1.339.029L136.6,172a1.435,1.435,0,0,1,.738,1.254v7.753a1.435,1.435,0,0,1-.591,1.161l-6.416,4.666a1.435,1.435,0,0,1-1.741-.04l-6.058-4.846a1.436,1.436,0,0,0-.592-.282l-32.2-7A1.352,1.352,0,0,1,88.957,174.184Zm32.023-36.27a.8.8,0,0,0-1.075-1.188l-5.394,4.88a7.334,7.334,0,0,0-5.661,2.613,6.012,6.012,0,0,0-1.217,4.121.8.8,0,0,0,.353.59l6.406,4.271a.8.8,0,1,0,.888-1.332l-6.068-4.045a4.456,4.456,0,0,1,.907-2.628c.761-.989,2.168-1.9,4.748-2a.8.8,0,0,0,.506-.206Zm-21.667,4.446a.8.8,0,1,0-.45-1.537c-3.932,1.151-11.429,6.345-10.985,17.883a.8.8,0,1,0,1.6-.062C89.068,147.973,95.949,143.344,99.313,142.359Zm33.01,3.217a.8.8,0,0,1-.55.99l-11.211,3.2a.8.8,0,0,1-.44-1.54l11.211-3.2A.8.8,0,0,1,132.323,145.576Z" transform="translate(-83.848 -134.341)" fill="#d82e20" fill-rule="evenodd"/>
        </g>
    </g>
</svg>