<?xml version="1.0" encoding="UTF-8" standalone="no" ?>
<!DOCTYPE svg PUBLIC "-//W3C//DTD SVG 1.1//EN" "http://www.w3.org/Graphics/SVG/1.1/DTD/svg11.dtd">
<svg xmlns="http://www.w3.org/2000/svg" xmlns:xlink="http://www.w3.org/1999/xlink" version="1.1" width="1080" height="1080" viewBox="0 0 1080 1080" xml:space="preserve">
<desc>Created with Fabric.js 5.2.4</desc>
<defs>
</defs>
<g transform="matrix(1 0 0 1 540 540)" id="e63adf19-e9dd-47ce-9c93-d9d51ab3c84d"  >
<rect style="stroke: none; stroke-width: 1; stroke-dasharray: none; stroke-linecap: butt; stroke-dashoffset: 0; stroke-linejoin: miter; stroke-miterlimit: 4; fill: rgb(255,255,255); fill-rule: nonzero; opacity: 1; visibility: hidden;" vector-effect="non-scaling-stroke"  x="-540" y="-540" rx="0" ry="0" width="1080" height="1080" />
</g>
<g transform="matrix(1 0 0 1 540 540)" id="479e1daf-4f6a-4b43-8de6-1e5a2c8a34b8"  >
</g>
<g transform="matrix(22.5 0 0 22.5 540 540)"  >
<g style=""   >
		<g transform="matrix(1 0 0 1 -4.08 -0.04)"  >
<path style="stroke: none; stroke-width: 1; stroke-dasharray: none; stroke-linecap: butt; stroke-dashoffset: 0; stroke-linejoin: miter; stroke-miterlimit: 4; fill: rgb(255,255,255); fill-rule: nonzero; opacity: 1;" vector-effect="non-scaling-stroke"  transform=" translate(-19.92, -23.96)" d="M 5.19382 12.9815 C 5.53782 12.9604 6.45816 13.4218 6.87533 13.6551 C 5.94411 15.0015 5.4846 17.7161 5.3315 20.7684 C 5.1784 23.8207 7.3969 26.8723 7.10818 26.8901 C 6.87721 26.9042 6.27445 26.3957 6.00195 26.1396 L 4.7369 28.0301 C 5.2519 28.9193 6.61397 30.7636 7.94228 31.0273 C 9.60267 31.357 26.7691 36.7771 28.37 37.542 C 29.6507 38.1539 31.7824 39.692 32.6882 40.3845 C 33.4222 39.2172 34.9326 36.4483 35.1022 34.7114 C 35.2717 32.9745 33.1022 30.259 31.9963 29.1184 C 31.8383 29.3583 31.4794 29.9788 31.3068 30.5419 C 31.091 31.2458 29.7135 32.7116 20.3001 29.8367 C 14.175 27.9339 11.4482 22.9851 10.8504 20.7486 C 9.80004 19.5758 7.6792 16.9034 7.59891 15.5961 C 7.49856 13.9621 10.1435 13.4544 12.4655 13.3118 C 14.7875 13.1692 27.7261 11.5977 25.137 10.2027 C 23.0657 9.0868 18.6316 8.76064 16.6734 8.73706 L 16.5995 7.53309 C 15.5961 7.5947 13.0475 7.88935 10.8796 8.57497 C 8.16986 9.432 4.76381 13.0079 5.19382 12.9815 Z" stroke-linecap="round" />
</g>
		<g transform="matrix(1 0 0 1 1.14 -12.3)"  >
<path style="stroke: none; stroke-width: 1; stroke-dasharray: none; stroke-linecap: butt; stroke-dashoffset: 0; stroke-linejoin: miter; stroke-miterlimit: 4; fill: rgb(255,255,255); fill-rule: nonzero; opacity: 1;" vector-effect="non-scaling-stroke"  transform=" translate(-25.14, -11.7)" d="M 12.0185 18.0706 C 11.4516 18.1054 8.56975 16.3495 9.52489 15.5733 C 10.48 14.7972 21.6715 13.4764 23.9305 12.9559 C 24.8153 12.752 26.7766 12.0228 27.475 10.7753 C 28.0767 9.96548 26.2654 9.22588 25.3585 8.92055 C 22.9712 8.11684 18.4287 7.93359 17.9008 7.96601 C 17.3729 7.99844 17.396 7.36738 18.4199 6.6643 C 19.4437 5.96122 22.0788 5.40797 23.3544 5.32962 C 24.63 5.25128 27.5029 6.61123 30.6736 7.7642 C 33.7525 8.88383 39.3712 10.9609 40.9442 13.022 L 40.9442 14.4461 C 40.7807 14.3576 38.4308 14.2576 35.7523 14.1945 C 32.4042 14.1156 27.2919 15.4254 24.8825 15.5734 L 17.5124 16.026 C 14.5361 16.2088 12.7271 18.0271 12.0185 18.0706 Z" stroke-linecap="round" />
</g>
		<g transform="matrix(1 0 0 1 -1.34 -0.65)"  >
<path style="stroke: none; stroke-width: 1; stroke-dasharray: none; stroke-linecap: butt; stroke-dashoffset: 0; stroke-linejoin: miter; stroke-miterlimit: 4; fill: rgb(255,255,255); fill-rule: nonzero; opacity: 1;" vector-effect="non-scaling-stroke"  transform=" translate(-22.66, -23.35)" d="M 16.7522 19.0406 C 15.6436 19.3382 13.4512 20.1322 13.5501 20.9275 C 13.6737 21.9215 14.8861 25.3529 17.1927 26.2128 C 17.3471 26.2704 17.5258 26.3375 17.7251 26.4123 C 20.502 27.4548 27.2922 30.0038 28.6602 29.4525 C 29.8331 28.9798 31.1775 27.6285 31.703 27.0119 C 32.1182 21.885 30.4545 18.3131 29.5707 17.168 C 29.2672 17.2476 28.3165 17.5145 26.9416 17.9447 C 25.5668 18.375 19.5758 18.8545 16.7522 19.0406 Z M 24.6273 25.3221 C 24.9673 25.5528 25.4299 25.4643 25.6607 25.1242 L 28.233 21.3335 C 28.4637 20.9935 28.3751 20.5308 28.0351 20.3001 C 27.6951 20.0694 27.2324 20.158 27.0017 20.498 L 24.4294 24.2887 C 24.1987 24.6287 24.2873 25.0914 24.6273 25.3221 Z M 20.6153 25.2058 C 20.9601 25.4293 21.4208 25.3311 21.6444 24.9864 L 23.1266 22.7008 C 23.3501 22.356 23.2519 21.8953 22.9071 21.6717 C 22.5624 21.4482 22.1017 21.5464 21.8781 21.8912 L 20.3959 24.1767 C 20.1723 24.5215 20.2706 24.9822 20.6153 25.2058 Z" stroke-linecap="round" />
</g>
</g>
</g>
</svg>