<?xml version="1.0" encoding="UTF-8" standalone="no" ?>
<!DOCTYPE svg PUBLIC "-//W3C//DTD SVG 1.1//EN" "http://www.w3.org/Graphics/SVG/1.1/DTD/svg11.dtd">
<svg xmlns="http://www.w3.org/2000/svg" xmlns:xlink="http://www.w3.org/1999/xlink" version="1.1" width="1080" height="1080" viewBox="0 0 1080 1080" xml:space="preserve">
<desc>Created with Fabric.js 5.2.4</desc>
<defs>
</defs>
<g transform="matrix(1 0 0 1 540 540)" id="c88f206a-8b1a-4919-b80d-2accc166ecf1"  >
<rect style="stroke: none; stroke-width: 1; stroke-dasharray: none; stroke-linecap: butt; stroke-dashoffset: 0; stroke-linejoin: miter; stroke-miterlimit: 4; fill: rgb(255,255,255); fill-rule: nonzero; opacity: 1; visibility: hidden;" vector-effect="non-scaling-stroke"  x="-540" y="-540" rx="0" ry="0" width="1080" height="1080" />
</g>
<g transform="matrix(1 0 0 1 540 540)" id="3cf4aa20-26de-4ac6-a1d1-a94625724ac6"  >
</g>
<g transform="matrix(22.5 0 0 22.5 540 540)"  >
<path style="stroke: none; stroke-width: 1; stroke-dasharray: none; stroke-linecap: butt; stroke-dashoffset: 0; stroke-linejoin: miter; stroke-miterlimit: 4; fill: rgb(255,255,255); fill-rule: evenodd; opacity: 1;"  transform=" translate(-25.86, -24.36)" d="M 7.28667 33.7339 C 5.58972 31.5438 2.85011 26.2517 4.00041 20.5003 C 5.50041 13.0003 10.5004 6.50027 20.5004 6.00027 C 28.675 5.59154 36.1814 9.52641 39.4688 11.2497 C 40.2029 11.6345 40.7266 11.909 41.0004 12.0003 C 41.9867 12.329 45.5173 13.3557 47.2064 13.8035 C 47.6672 13.9257 48.0004 14.3433 48.0004 14.82 L 48.0004 15.6127 C 48.0004 16.2952 47.3311 16.7822 46.6721 16.6042 C 44.7579 16.087 41.4213 15.3949 39.0004 16.0001 C 36.0073 16.7484 28.4067 19.0132 24.2995 20.2576 C 23.8364 20.3979 23.5415 20.8499 23.5981 21.3304 L 24.4219 28.3332 C 24.4694 28.7365 24.7561 29.0711 25.1474 29.1799 L 33.1297 31.3971 C 33.3683 31.4634 33.623 31.4388 33.8445 31.3281 L 36.0286 30.236 C 36.3239 30.0884 36.6729 30.096 36.9615 30.2563 L 40.486 32.2144 C 40.8035 32.3907 41.0004 32.7254 41.0004 33.0885 L 41.0004 38.4909 C 41.0004 38.8108 40.8473 39.1115 40.5886 39.2996 L 36.1175 42.5513 C 35.7531 42.8164 35.2564 42.805 34.9046 42.5235 L 30.6835 39.1466 C 30.5631 39.0503 30.422 38.9831 30.2713 38.9503 L 7.83621 34.0733 C 7.61859 34.026 7.42307 33.91 7.28667 33.7339 Z M 29.6008 8.46007 C 29.8293 8.25331 29.8469 7.90044 29.6402 7.67192 C 29.4334 7.44339 29.0806 7.42575 28.852 7.63251 L 25.0936 11.033 C 23.1406 11.1533 21.8886 11.8925 21.1489 12.8535 C 20.4003 13.8259 20.2279 14.959 20.3008 15.7252 C 20.3168 15.8924 20.4071 16.0435 20.5468 16.1366 L 25.0108 19.1126 C 25.2673 19.2836 25.6137 19.2143 25.7847 18.9579 C 25.9556 18.7015 25.8863 18.355 25.6299 18.1841 L 21.4015 15.3652 C 21.4067 14.8401 21.5663 14.1407 22.0332 13.5342 C 22.5636 12.8452 23.544 12.207 25.3418 12.1379 C 25.4727 12.1329 25.5976 12.082 25.6947 11.9941 L 29.6008 8.46007 Z M 14.5031 11.558 C 14.7989 11.4715 14.9685 11.1615 14.8819 10.8658 C 14.7954 10.57 14.4854 10.4004 14.1896 10.487 C 11.4498 11.2889 6.22553 14.9083 6.53475 22.948 C 6.54659 23.256 6.80583 23.496 7.11378 23.4842 C 7.42173 23.4723 7.66177 23.2131 7.64993 22.9051 C 7.36395 15.4696 12.1589 12.2442 14.5031 11.558 Z M 37.5051 13.7994 C 37.5898 14.0957 37.4182 14.4045 37.1219 14.4892 L 29.3098 16.7212 C 29.0135 16.8059 28.7047 16.6343 28.62 16.338 C 28.5353 16.0417 28.7069 15.7328 29.0032 15.6482 L 36.8153 13.4161 C 37.1116 13.3315 37.4205 13.5031 37.5051 13.7994 Z" stroke-linecap="round" />
</g>
</svg>