<?xml version="1.0" encoding="UTF-8" standalone="no" ?>
<!DOCTYPE svg PUBLIC "-//W3C//DTD SVG 1.1//EN" "http://www.w3.org/Graphics/SVG/1.1/DTD/svg11.dtd">
<svg xmlns="http://www.w3.org/2000/svg" xmlns:xlink="http://www.w3.org/1999/xlink" version="1.1" width="1080" height="1080" viewBox="0 0 1080 1080" xml:space="preserve">
<desc>Created with Fabric.js 5.2.4</desc>
<defs>
</defs>
<g transform="matrix(1 0 0 1 540 540)" id="aee854c5-bfe2-4227-9bf0-7b52b3523989"  >
<rect style="stroke: none; stroke-width: 1; stroke-dasharray: none; stroke-linecap: butt; stroke-dashoffset: 0; stroke-linejoin: miter; stroke-miterlimit: 4; fill: rgb(255,255,255); fill-rule: nonzero; opacity: 1; visibility: hidden;" vector-effect="non-scaling-stroke"  x="-540" y="-540" rx="0" ry="0" width="1080" height="1080" />
</g>
<g transform="matrix(1 0 0 1 540 540)" id="558faa37-67c4-4ffb-8c2f-e52305d18df2"  >
</g>
<g transform="matrix(22.5 0 0 22.5 540 540)"  >
<g style=""   >
		<g transform="matrix(1 0 0 1 -2.69 3.46)"  >
<path style="stroke: none; stroke-width: 1; stroke-dasharray: none; stroke-linecap: butt; stroke-dashoffset: 0; stroke-linejoin: miter; stroke-miterlimit: 4; fill: rgb(255,255,255); fill-rule: nonzero; opacity: 1;" vector-effect="non-scaling-stroke"  transform=" translate(-21.31, -27.46)" d="M 9.02539 13.6077 L 6.5586 11.3801 C 8.34071 10.0436 13.6134 10.0277 16.027 10.1868 C 12.9081 10.1231 10.0597 12.4409 9.02539 13.6077 Z M 23.3945 42.1914 C 21.3775 41.6414 19.0595 41.1826 16.6653 40.7088 L 16.6653 40.7088 L 16.6653 40.7087 C 13.7172 40.1253 10.6537 39.519 7.89449 38.6914 C 0.89453 32.1912 3.39456 21.1912 5.39449 18.6912 C 5.44107 18.6329 5.49525 18.5642 5.5569 18.4859 C 6.66455 17.08 10.1845 12.6123 15.3945 11.1914 C 20.8945 9.69136 25.8945 10.6914 30.8945 13.6914 C 34.8945 16.0914 36.2279 20.8578 36.3945 23.1912 L 21.3945 23.1912 C 18.8946 23.1912 16.8945 25.1912 16.8945 27.6912 C 16.8945 30.1912 17.8945 31.1912 19.8945 32.1912 L 21.3945 34.1914 L 32.8945 37.6914 C 32.8945 38.3168 32.0945 40.9912 30.8945 42.1912 C 30.5819 42.5038 28.8945 43.6912 23.3945 42.1914 Z M 37.8862 38.3168 C 37.3453 38.8172 35.5872 38.2849 34.7758 37.9562 C 34.3339 41.0248 33.2368 42.7378 32.7435 43.0128 C 32.075 43.3854 31.463 43.4467 30.9478 43.4982 C 30.8035 43.5127 30.6667 43.5263 30.5385 43.5459 L 36.3945 44.7998 C 36.5881 44.6319 36.8242 44.4549 37.0774 44.265 L 37.0776 44.2649 C 38.0253 43.5545 39.2149 42.6627 39.3287 41.3821 C 39.509 39.3536 38.5624 37.6914 37.8862 38.3168 Z M 22.5048 15.1549 C 22.9155 15.1427 23.2385 14.7998 23.2262 14.3891 C 23.214 13.9783 22.8711 13.6553 22.4604 13.6676 C 22.2838 13.6729 22.0984 13.6774 21.9054 13.6821 C 20.7564 13.7101 19.3369 13.7447 17.8967 13.9845 C 16.2058 14.2661 14.4175 14.839 12.9009 16.0646 C 11.5229 17.1782 10.3094 18.8424 9.45689 20.1828 C 9.02566 20.8608 8.67689 21.4719 8.43561 21.9141 C 8.31486 22.1354 8.22071 22.3149 8.15631 22.4401 C 8.1241 22.5026 8.09931 22.5517 8.08232 22.5855 L 8.06274 22.6248 L 8.05743 22.6356 L 8.05591 22.6386 L 8.05515 22.6402 C 7.87448 23.0092 8.0272 23.4549 8.39626 23.6355 C 8.76527 23.8162 9.2109 23.6634 9.39162 23.2944 L 9.39237 23.2929 L 9.39612 23.2853 L 9.41245 23.2526 C 9.42721 23.2231 9.44965 23.1788 9.47937 23.121 C 9.53882 23.0055 9.62734 22.8366 9.7418 22.6269 C 9.97096 22.2069 10.3028 21.6254 10.7125 20.9814 C 11.5417 19.6776 12.6508 18.1798 13.8361 17.2219 C 15.0815 16.2155 16.5937 15.71 18.1411 15.4523 C 19.469 15.2312 20.7722 15.1989 21.9247 15.1703 L 21.925 15.1703 C 21.9555 15.1695 21.9858 15.1688 22.0161 15.168 C 22.1824 15.1639 22.3454 15.1597 22.5048 15.1549 Z" stroke-linecap="round" />
</g>
		<g transform="matrix(1 0 0 1 4.06 6.75)"  >
<path style="stroke: none; stroke-width: 1; stroke-dasharray: none; stroke-linecap: butt; stroke-dashoffset: 0; stroke-linejoin: miter; stroke-miterlimit: 4; fill: rgb(255,255,255); fill-rule: nonzero; opacity: 1;" vector-effect="non-scaling-stroke"  transform=" translate(-28.06, -30.75)" d="M 21.3945 24.6914 C 19.7377 24.6914 18.3945 26.0346 18.3945 27.6914 C 18.3945 29.3483 19.7377 30.6914 21.3945 30.6914 C 21.404 30.6914 21.4134 30.6914 21.4228 30.6913 C 21.4405 30.7641 21.4663 30.835 21.5001 30.9026 L 22.1989 32.3002 C 22.3236 32.5496 22.5468 32.7356 22.8146 32.8133 L 36.4427 36.7699 C 37.131 36.9697 37.7998 36.402 37.7144 35.6904 L 36.5002 25.5723 C 36.4399 25.0697 36.0136 24.6914 35.5074 24.6914 L 21.3945 24.6914 Z M 24.8214 28.7109 C 24.5647 29.0317 24.6167 29.4999 24.9376 29.7566 C 25.2584 30.0133 25.7266 29.9613 25.9833 29.6404 L 28.0298 27.0823 C 28.2865 26.7615 28.2345 26.2933 27.9136 26.0366 C 27.5927 25.7799 27.1245 25.8319 26.8679 26.1528 L 24.8214 28.7109 Z M 27.8637 31.066 C 27.6046 31.3849 27.6531 31.8535 27.972 32.1126 C 28.2909 32.3717 28.7595 32.3232 29.0186 32.0043 L 32.9163 27.2071 C 33.1754 26.8882 33.1269 26.4196 32.808 26.1605 C 32.4891 25.9014 32.0206 25.9499 31.7614 26.2688 L 27.8637 31.066 Z" stroke-linecap="round" />
</g>
		<g transform="matrix(1 0 0 1 18.27 -4.41)"  >
<path style="stroke: none; stroke-width: 1; stroke-dasharray: none; stroke-linecap: butt; stroke-dashoffset: 0; stroke-linejoin: miter; stroke-miterlimit: 4; fill: rgb(255,255,255); fill-rule: nonzero; opacity: 1;" vector-effect="non-scaling-stroke"  transform=" translate(-42.27, -19.59)" d="M 45.3854 22 C 45.5472 22 45.642 21.8179 45.5492 21.6853 L 43.8023 19.1897 C 43.7095 19.0571 43.8044 18.875 43.9662 18.875 L 44.7041 18.875 C 44.8621 18.875 44.9577 18.7003 44.8725 18.5672 L 42.438 14.7632 C 42.3593 14.6403 42.1797 14.6403 42.1011 14.7632 L 39.6665 18.5672 C 39.5813 18.7003 39.6769 18.875 39.835 18.875 L 40.5729 18.875 C 40.7347 18.875 40.8295 19.0571 40.7367 19.1897 L 38.9898 21.6853 C 38.897 21.8179 38.9919 22 39.1537 22 L 41.3695 22 C 41.48 22 41.5695 22.0895 41.5695 22.2 L 41.5695 24.3 C 41.5695 24.4105 41.6591 24.5 41.7695 24.5 L 42.7695 24.5 C 42.88 24.5 42.9695 24.4105 42.9695 24.3 L 42.9695 22.2 C 42.9695 22.0895 43.0591 22 43.1695 22 L 45.3854 22 Z" stroke-linecap="round" />
</g>
		<g transform="matrix(1 0 0 1 13.97 -15.41)"  >
<path style="stroke: none; stroke-width: 1; stroke-dasharray: none; stroke-linecap: butt; stroke-dashoffset: 0; stroke-linejoin: miter; stroke-miterlimit: 4; fill: rgb(255,255,255); fill-rule: nonzero; opacity: 1;" vector-effect="non-scaling-stroke"  transform=" translate(-37.97, -8.59)" d="M 41.7854 11.5 C 41.9472 11.5 42.042 11.3179 41.9492 11.1853 L 39.7648 8.06469 C 39.672 7.93214 39.7669 7.75 39.9287 7.75 L 40.9641 7.75 C 41.1221 7.75 41.2177 7.57531 41.1325 7.44219 L 38.138 2.76321 C 38.0593 2.64029 37.8797 2.64029 37.8011 2.76321 L 34.8065 7.44219 C 34.7213 7.57531 34.8169 7.75 34.975 7.75 L 36.0104 7.75 C 36.1722 7.75 36.267 7.93214 36.1742 8.06469 L 33.9898 11.1853 C 33.897 11.3179 33.9919 11.5 34.1537 11.5 L 36.9295 11.5 C 37.04 11.5 37.1295 11.5895 37.1295 11.7 L 37.1295 14.3 C 37.1295 14.4105 37.2191 14.5 37.3295 14.5 L 38.6095 14.5 C 38.72 14.5 38.8095 14.4105 38.8095 14.3 L 38.8095 11.7 C 38.8095 11.5895 38.8991 11.5 39.0095 11.5 L 41.7854 11.5 Z" stroke-linecap="round" />
</g>
</g>
</g>
</svg>