<?xml version="1.0" encoding="UTF-8" standalone="no" ?>
<!DOCTYPE svg PUBLIC "-//W3C//DTD SVG 1.1//EN" "http://www.w3.org/Graphics/SVG/1.1/DTD/svg11.dtd">
<svg xmlns="http://www.w3.org/2000/svg" xmlns:xlink="http://www.w3.org/1999/xlink" version="1.1" width="1080" height="1080" viewBox="0 0 1080 1080" xml:space="preserve">
<desc>Created with Fabric.js 5.2.4</desc>
<defs>
</defs>
<g transform="matrix(1 0 0 1 540 540)" id="19e7a500-f81b-49cd-9302-b1f5e2200bf0"  >
<rect style="stroke: none; stroke-width: 1; stroke-dasharray: none; stroke-linecap: butt; stroke-dashoffset: 0; stroke-linejoin: miter; stroke-miterlimit: 4; fill: rgb(255,255,255); fill-rule: nonzero; opacity: 1; visibility: hidden;" vector-effect="non-scaling-stroke"  x="-540" y="-540" rx="0" ry="0" width="1080" height="1080" />
</g>
<g transform="matrix(1 0 0 1 540 540)" id="228b0b44-7533-419b-8457-824c810442b1"  >
</g>
<g transform="matrix(22.5 0 0 22.5 540 540)"  >
<g style=""   >
		<g transform="matrix(1 0 0 1 -1.75 3.4)"  >
<path style="stroke: none; stroke-width: 1; stroke-dasharray: none; stroke-linecap: butt; stroke-dashoffset: 0; stroke-linejoin: miter; stroke-miterlimit: 4; fill: rgb(0,0,0); fill-rule: nonzero; opacity: 1;" vector-effect="non-scaling-stroke"  transform=" translate(-22.25, -27.4)" d="M 6.19244 23.725 L 8 24.4997 L 7 28.9997 L 6.15414 29.1689 C 6.15344 29.1331 6.14928 29.097 6.14141 29.0607 C 5.9551 28.2031 5.84006 27.1851 5.8418 26.205 C 5.84349 25.2515 5.95575 24.3748 6.19244 23.725 Z M 5.16545 23.2849 L 4.5 22.9997 L 3 22.4995 C 4 21.3328 6.2 18.7995 7 17.9995 C 7.15602 17.8435 7.3729 17.5901 7.64874 17.2678 C 9.14084 15.5245 12.3581 11.7657 17 10.4997 C 22.5 8.99969 27.5 9.99969 32.5 12.9997 C 36.5 15.3997 37.8333 20.6664 38 22.9997 L 22 22.9997 C 19.5 23.4995 19 25.4995 19 26.9995 C 19 28.4995 19.5 30.4995 22 30.9995 L 23 33.4997 L 41.5 37.9997 C 40.6667 39.4997 38.7 42.7997 37.5 43.9997 C 36 45.4997 35 45.4997 30 42.4997 C 26 40.0997 14.6667 38.4997 9.5 37.9997 L 8 33.4997 L 4.5 29.4997 L 5.07708 29.3843 C 5.06618 29.3566 5.05736 29.3277 5.05084 29.2977 C 4.84766 28.3624 4.72391 27.2643 4.72579 26.203 C 4.72763 25.164 4.84978 24.1175 5.16545 23.2849 Z M 24.8317 13.6974 C 24.844 14.1081 24.521 14.451 24.1103 14.4633 C 23.9218 14.4689 23.7283 14.4737 23.5302 14.4786 C 22.3777 14.5072 21.0745 14.5395 19.7466 14.7606 C 18.1993 15.0183 16.687 15.5239 15.4416 16.5303 C 14.2563 17.4882 13.1472 18.9859 12.318 20.2897 C 11.9084 20.9338 11.5765 21.5153 11.3473 21.9352 C 11.2329 22.145 11.1443 22.3138 11.0849 22.4294 C 11.0552 22.4871 11.0327 22.5315 11.018 22.5609 L 11.0016 22.5936 L 10.9979 22.6012 L 10.9971 22.6028 M 10.9971 22.6028 C 10.8164 22.9717 10.3708 23.1245 10.0018 22.9439 C 9.63271 22.7632 9.47999 22.3176 9.66066 21.9485 L 10.2662 22.245 C 9.66066 21.9485 9.6606 21.9487 9.66066 21.9485 L 9.66141 21.947 L 9.66294 21.9439 L 9.66825 21.9331 L 9.68783 21.8939 C 9.70482 21.86 9.72961 21.811 9.76182 21.7484 C 9.82622 21.6233 9.92037 21.4437 10.0411 21.2224 C 10.2824 20.7803 10.6312 20.1692 11.0624 19.4911 C 11.9149 18.1508 13.1284 16.4865 14.5064 15.3729 C 16.023 14.1473 17.8113 13.5744 19.5022 13.2928 C 20.9424 13.053 22.3619 13.0184 23.5109 12.9904 C 23.7039 12.9857 23.8893 12.9812 24.0659 12.9759 C 24.4766 12.9637 24.8195 13.2867 24.8317 13.6974" stroke-linecap="round" />
</g>
		<g transform="matrix(1 0 0 1 6.97 6.27)"  >
<path style="stroke: none; stroke-width: 1; stroke-dasharray: none; stroke-linecap: butt; stroke-dashoffset: 0; stroke-linejoin: miter; stroke-miterlimit: 4; fill: rgb(0,0,0); fill-rule: nonzero; opacity: 1;" vector-effect="non-scaling-stroke"  transform=" translate(-30.97, -30.27)" d="M 23 24 C 21.3431 24 20 25.3431 20 27 C 20 28.6569 21.3431 30 23 30 C 23.0094 30 23.0188 30 23.0282 29.9999 C 23.0459 30.0727 23.0718 30.1436 23.1056 30.2111 L 23.7994 31.5989 C 23.927 31.854 24.1575 32.0426 24.433 32.117 L 40.6761 36.507 C 41.4511 36.7165 42.1446 35.9733 41.882 35.2146 L 38.2329 24.6729 C 38.0935 24.2701 37.7141 24 37.2879 24 L 23 24 Z M 26.4269 28.0195 C 26.1702 28.3403 26.2222 28.8085 26.543 29.0652 C 26.8639 29.3219 27.3321 29.2699 27.5888 28.949 L 29.6353 26.3909 C 29.892 26.0701 29.8399 25.6019 29.5191 25.3452 C 29.1982 25.0885 28.73 25.1405 28.4733 25.4614 L 26.4269 28.0195 Z M 29.4692 30.3746 C 29.2101 30.6935 29.2586 31.1621 29.5775 31.4212 C 29.8964 31.6803 30.365 31.6318 30.6241 31.3129 L 34.5218 26.5157 C 34.7809 26.1968 34.7324 25.7282 34.4135 25.4691 C 34.0946 25.21 33.626 25.2585 33.3669 25.5774 L 29.4692 30.3746 Z" stroke-linecap="round" />
</g>
		<g transform="matrix(1 0 0 1 18.58 -17.94)"  >
<path style="stroke: rgb(255,255,255); stroke-width: 0.296195; stroke-dasharray: none; stroke-linecap: butt; stroke-dashoffset: 0; stroke-linejoin: miter; stroke-miterlimit: 4; fill: rgb(0,0,0); fill-rule: nonzero; opacity: 1;" vector-effect="non-scaling-stroke"  transform=" translate(-42.58, -6.06)" d="M 43.5845 4.672 C 43.1683 3.65297 41.5046 3.37412 40.7248 3.36208 L 39.2377 6.41308 C 39.8385 6.36209 41.2515 6.55268 42.0974 7.723 C 42.9433 8.89333 43.8802 8.83547 44.2429 8.66025 C 44.8577 7.70536 46.0512 5.79503 45.9072 5.79281 C 45.7272 5.79003 44.1049 5.94579 43.5845 4.672 Z" stroke-linecap="round" />
</g>
		<g transform="matrix(1 0 0 1 17.34 -19.91)"  >
<path style="stroke: none; stroke-width: 1; stroke-dasharray: none; stroke-linecap: butt; stroke-dashoffset: 0; stroke-linejoin: miter; stroke-miterlimit: 4; fill: rgb(0,0,0); fill-rule: nonzero; opacity: 1;" vector-effect="non-scaling-stroke"  transform=" translate(-41.34, -4.09)" d="M 40.1668 4.43819 C 40.457 4.29801 41.4247 4.57816 41.9608 4.82754 L 42.1463 4.46876 L 42.5174 3.75121 C 41.8032 3.37853 41.6232 3.37575 40.7235 3.36185 L 40.1668 4.43819 Z" stroke-linecap="round" />
</g>
		<g transform="matrix(1 0 0 1 20.63 -18.05)"  >
<path style="stroke: none; stroke-width: 1; stroke-dasharray: none; stroke-linecap: butt; stroke-dashoffset: 0; stroke-linejoin: miter; stroke-miterlimit: 4; fill: rgb(0,0,0); fill-rule: nonzero; opacity: 1;" vector-effect="non-scaling-stroke"  transform=" translate(-44.63, -5.95)" d="M 45.8761 5.82246 C 45.5665 5.91138 44.2459 5.37302 43.7594 5.03623 L 43.3855 5.93456 C 44.0268 6.4231 44.2867 6.69986 45.1712 6.86626 L 45.8761 5.82246 Z" stroke-linecap="round" />
</g>
		<g transform="matrix(1 0 0 1 19.35 -16.08)"  >
<path style="stroke: none; stroke-width: 1; stroke-dasharray: none; stroke-linecap: butt; stroke-dashoffset: 0; stroke-linejoin: miter; stroke-miterlimit: 4; fill: rgb(0,0,0); fill-rule: nonzero; opacity: 1;" vector-effect="non-scaling-stroke"  transform=" translate(-43.35, -7.92)" d="M 44.6138 7.94239 C 44.3042 8.03131 43.3147 7.34743 42.8282 7.01065 C 42.6358 7.40186 42.4683 7.59424 42.0944 7.90342 C 42.7357 8.39196 43.1755 8.67152 44.06 8.83791 L 44.6138 7.94239 Z" stroke-linecap="round" />
</g>
		<g transform="matrix(1 0 0 1 18.39 -18.08)"  >
<path style="stroke: none; stroke-width: 1; stroke-dasharray: none; stroke-linecap: butt; stroke-dashoffset: 0; stroke-linejoin: miter; stroke-miterlimit: 4; fill: rgb(0,0,0); fill-rule: nonzero; opacity: 1;" vector-effect="non-scaling-stroke"  transform=" translate(-42.39, -5.92)" d="M 41.4051 5.90401 C 41.7622 6.09034 42.2919 6.76154 42.828 7.01091 L 43.1991 6.29336 L 43.3846 5.93458 C 42.6704 5.56191 42.6732 5.38113 41.9617 4.82767 L 41.4051 5.90401 Z" stroke-linecap="round" />
</g>
		<g transform="matrix(1 0 0 1 16.32 -17.93)"  >
<path style="stroke: none; stroke-width: 1; stroke-dasharray: none; stroke-linecap: butt; stroke-dashoffset: 0; stroke-linejoin: miter; stroke-miterlimit: 4; fill: rgb(0,0,0); fill-rule: nonzero; opacity: 1;" vector-effect="non-scaling-stroke"  transform=" translate(-40.32, -6.07)" d="M 39.2372 6.41282 C 39.5273 6.27264 40.495 6.55277 41.0311 6.80215 L 41.405 5.90381 C 41.1678 5.71933 40.5496 5.34814 39.9737 5.33924 L 39.2372 6.41282 Z" stroke-linecap="round" />
</g>
		<g transform="matrix(1 0 0 1 15 -17.04)"  >
<path style="stroke: rgb(255,255,255); stroke-width: 0.888584; stroke-dasharray: none; stroke-linecap: round; stroke-dashoffset: 0; stroke-linejoin: miter; stroke-miterlimit: 4; fill: rgb(0,0,0); fill-rule: nonzero; opacity: 1;" vector-effect="non-scaling-stroke"  transform=" translate(-39, -6.96)" d="M 40.9884 3.06041 L 37.02 10.8682" stroke-linecap="round" />
</g>
		<g transform="matrix(1 0 0 1 11.01 -17.94)"  >
<path style="stroke: rgb(255,255,255); stroke-width: 0.296195; stroke-dasharray: none; stroke-linecap: butt; stroke-dashoffset: 0; stroke-linejoin: miter; stroke-miterlimit: 4; fill: rgb(0,0,0); fill-rule: nonzero; opacity: 1;" vector-effect="non-scaling-stroke"  transform=" translate(-35.01, -6.06)" d="M 34.0014 4.672 C 34.4177 3.65297 36.0813 3.37412 36.8611 3.36208 L 38.3482 6.41308 C 37.7475 6.36209 36.3344 6.55268 35.4885 7.723 C 34.6426 8.89333 33.7057 8.83547 33.343 8.66025 C 32.7283 7.70536 31.5348 5.79503 31.6787 5.79281 C 31.8587 5.79003 33.4811 5.94579 34.0014 4.672 Z" stroke-linecap="round" />
</g>
		<g transform="matrix(1 0 0 1 12.24 -19.91)"  >
<path style="stroke: none; stroke-width: 1; stroke-dasharray: none; stroke-linecap: butt; stroke-dashoffset: 0; stroke-linejoin: miter; stroke-miterlimit: 4; fill: rgb(0,0,0); fill-rule: nonzero; opacity: 1;" vector-effect="non-scaling-stroke"  transform=" translate(-36.24, -4.09)" d="M 37.4191 4.43819 C 37.1289 4.29801 36.1613 4.57816 35.6251 4.82754 L 35.4396 4.46876 L 35.0685 3.75121 C 35.7828 3.37853 35.9627 3.37575 36.8625 3.36185 L 37.4191 4.43819 Z" stroke-linecap="round" />
</g>
		<g transform="matrix(1 0 0 1 8.96 -18.05)"  >
<path style="stroke: none; stroke-width: 1; stroke-dasharray: none; stroke-linecap: butt; stroke-dashoffset: 0; stroke-linejoin: miter; stroke-miterlimit: 4; fill: rgb(0,0,0); fill-rule: nonzero; opacity: 1;" vector-effect="non-scaling-stroke"  transform=" translate(-32.96, -5.95)" d="M 31.7099 5.82246 C 32.0194 5.91138 33.34 5.37302 33.8265 5.03623 L 34.2004 5.93456 C 33.5591 6.4231 33.2993 6.69986 32.4148 6.86626 L 31.7099 5.82246 Z" stroke-linecap="round" />
</g>
		<g transform="matrix(1 0 0 1 10.23 -16.08)"  >
<path style="stroke: none; stroke-width: 1; stroke-dasharray: none; stroke-linecap: butt; stroke-dashoffset: 0; stroke-linejoin: miter; stroke-miterlimit: 4; fill: rgb(0,0,0); fill-rule: nonzero; opacity: 1;" vector-effect="non-scaling-stroke"  transform=" translate(-34.23, -7.92)" d="M 32.9722 7.94239 C 33.2817 8.03131 34.2713 7.34743 34.7578 7.01065 C 34.9502 7.40186 35.1176 7.59424 35.4915 7.90342 C 34.8502 8.39196 34.4105 8.67152 33.526 8.83791 L 32.9722 7.94239 Z" stroke-linecap="round" />
</g>
		<g transform="matrix(1 0 0 1 11.19 -18.08)"  >
<path style="stroke: none; stroke-width: 1; stroke-dasharray: none; stroke-linecap: butt; stroke-dashoffset: 0; stroke-linejoin: miter; stroke-miterlimit: 4; fill: rgb(0,0,0); fill-rule: nonzero; opacity: 1;" vector-effect="non-scaling-stroke"  transform=" translate(-35.19, -5.92)" d="M 36.1808 5.90401 C 35.8237 6.09034 35.2941 6.76154 34.7579 7.01091 L 34.3868 6.29336 L 34.2013 5.93458 C 34.9155 5.56191 34.9128 5.38113 35.6242 4.82767 L 36.1808 5.90401 Z" stroke-linecap="round" />
</g>
		<g transform="matrix(1 0 0 1 13.26 -17.93)"  >
<path style="stroke: none; stroke-width: 1; stroke-dasharray: none; stroke-linecap: butt; stroke-dashoffset: 0; stroke-linejoin: miter; stroke-miterlimit: 4; fill: rgb(0,0,0); fill-rule: nonzero; opacity: 1;" vector-effect="non-scaling-stroke"  transform=" translate(-37.26, -6.07)" d="M 38.3488 6.41282 C 38.0586 6.27264 37.091 6.55277 36.5548 6.80215 L 36.1809 5.90381 C 36.4181 5.71933 37.0364 5.34814 37.6122 5.33924 L 38.3488 6.41282 Z" stroke-linecap="round" />
</g>
		<g transform="matrix(1 0 0 1 14.58 -17.04)"  >
<path style="stroke: rgb(255,255,255); stroke-width: 0.888584; stroke-dasharray: none; stroke-linecap: round; stroke-dashoffset: 0; stroke-linejoin: miter; stroke-miterlimit: 4; fill: rgb(0,0,0); fill-rule: nonzero; opacity: 1;" vector-effect="non-scaling-stroke"  transform=" translate(-38.58, -6.96)" d="M 36.5975 3.06041 L 40.566 10.8682" stroke-linecap="round" />
</g>
</g>
</g>
</svg>